<svg xmlns="http://www.w3.org/2000/svg" viewBox="0 0 200 200">
<circle cx="100" cy="100" r="95" fill="#FFF8E0" stroke="none" stroke-width="0"/><path d="M78,54 Q58,30 50,42" fill="none" stroke="#A09070" stroke-width="4" stroke-linecap="round" stroke-linejoin="round"/><path d="M122,54 Q142,30 150,42" fill="none" stroke="#A09070" stroke-width="4" stroke-linecap="round" stroke-linejoin="round"/><ellipse cx="100" cy="148" rx="46" ry="36" fill="#C0B898" stroke="#2C2C2C" stroke-width="1.5"/><circle cx="100" cy="82" r="32" fill="#C0B898" stroke="#2C2C2C" stroke-width="1.5"/><ellipse cx="76" cy="84" rx="12" ry="9" fill="#C0B898" stroke="#6A5A3A" stroke-width="1"/><ellipse cx="124" cy="84" rx="12" ry="9" fill="#C0B898" stroke="#6A5A3A" stroke-width="1"/><ellipse cx="100" cy="94" rx="16" ry="11" fill="#D8CCB0" stroke="#6A5A3A" stroke-width="1"/><path d="M90,106 Q100,128 110,106 Q105,118 100,120 Q95,118 90,106" fill="#D8D0B8" stroke="#6A5A3A" stroke-width="1" stroke-linecap="round" stroke-linejoin="round"/><circle cx="100" cy="89" r="5" fill="#3A2A1A" stroke="none" stroke-width="0"/><circle cx="83" cy="74" r="7" fill="#FFF" stroke="#2C2C2C" stroke-width="1.5"/><circle cx="83.5" cy="74.5" r="4.2" fill="#2C2C2C" stroke="none" stroke-width="0"/><circle cx="81.5" cy="72" r="1.54" fill="#FFF" stroke="none" stroke-width="0"/><circle cx="117" cy="74" r="7" fill="#FFF" stroke="#2C2C2C" stroke-width="1.5"/><circle cx="117.5" cy="74.5" r="4.2" fill="#2C2C2C" stroke="none" stroke-width="0"/><circle cx="115.5" cy="72" r="1.54" fill="#FFF" stroke="none" stroke-width="0"/><path d="M93 101 Q100 104 107 101" fill="none" stroke="#2C2C2C" stroke-width="1.5" stroke-linecap="round" stroke-linejoin="round"/>
</svg>