<svg xmlns="http://www.w3.org/2000/svg" viewBox="0 0 200 200">
<circle cx="100" cy="100" r="95" fill="#FFF8DC" stroke="none" stroke-width="0"/><circle cx="100" cy="85" r="46" fill="#A06820" stroke="#2C2C2C" stroke-width="1.5"/><ellipse cx="100" cy="150" rx="46" ry="36" fill="#D4A030" stroke="#2C2C2C" stroke-width="1.5"/><polygon points="76,46 84,75 68,75" fill="#D4A030" stroke="#A06820" stroke-width="1.5"/><polygon points="124,46 132,75 116,75" fill="#D4A030" stroke="#A06820" stroke-width="1.5"/><circle cx="100" cy="85" r="34" fill="#D4A030" stroke="#2C2C2C" stroke-width="1.5"/><ellipse cx="100" cy="98" rx="18" ry="12" fill="#E8C060" stroke="#B08030" stroke-width="1"/><circle cx="100" cy="93" r="5" fill="#3C2010" stroke="none" stroke-width="0"/><circle cx="82" cy="76" r="7" fill="#FFF" stroke="#2C2C2C" stroke-width="1.5"/><circle cx="82.5" cy="76.5" r="4.2" fill="#2C2C2C" stroke="none" stroke-width="0"/><circle cx="80.5" cy="74" r="1.54" fill="#FFF" stroke="none" stroke-width="0"/><circle cx="118" cy="76" r="7" fill="#FFF" stroke="#2C2C2C" stroke-width="1.5"/><circle cx="118.5" cy="76.5" r="4.2" fill="#2C2C2C" stroke="none" stroke-width="0"/><circle cx="116.5" cy="74" r="1.54" fill="#FFF" stroke="none" stroke-width="0"/><line x1="86" y1="100" x2="70" y2="97" stroke="#A06820" stroke-width="1" stroke-linecap="round"/><line x1="86" y1="102" x2="70" y2="102" stroke="#A06820" stroke-width="1" stroke-linecap="round"/><line x1="114" y1="100" x2="130" y2="97" stroke="#A06820" stroke-width="1" stroke-linecap="round"/><line x1="114" y1="102" x2="130" y2="102" stroke="#A06820" stroke-width="1" stroke-linecap="round"/><path d="M93 105 Q100 109 107 105" fill="none" stroke="#2C2C2C" stroke-width="1.5" stroke-linecap="round" stroke-linejoin="round"/>
</svg>