<svg xmlns="http://www.w3.org/2000/svg" viewBox="0 0 200 200">
<circle cx="100" cy="100" r="95" fill="#D4B890" stroke="none" stroke-width="0"/><ellipse cx="100" cy="155" rx="20" ry="26" fill="#8B2020" stroke="#2C2C2C" stroke-width="1.5"/><circle cx="100" cy="120" r="15" fill="#8B2020" stroke="#2C2C2C" stroke-width="1.5"/><circle cx="100" cy="88" r="16" fill="#8B2020" stroke="#2C2C2C" stroke-width="1.5"/><line x1="86" y1="118" x2="65" y2="105" stroke="#5A1010" stroke-width="2" stroke-linecap="round"/><line x1="65" y1="105" x2="55" y2="115" stroke="#5A1010" stroke-width="2" stroke-linecap="round"/><line x1="86" y1="122" x2="65" y2="118" stroke="#5A1010" stroke-width="2" stroke-linecap="round"/><line x1="65" y1="118" x2="55" y2="130" stroke="#5A1010" stroke-width="2" stroke-linecap="round"/><line x1="86" y1="126" x2="68" y2="135" stroke="#5A1010" stroke-width="2" stroke-linecap="round"/><line x1="68" y1="135" x2="62" y2="148" stroke="#5A1010" stroke-width="2" stroke-linecap="round"/><line x1="114" y1="118" x2="135" y2="105" stroke="#5A1010" stroke-width="2" stroke-linecap="round"/><line x1="135" y1="105" x2="145" y2="115" stroke="#5A1010" stroke-width="2" stroke-linecap="round"/><line x1="114" y1="122" x2="135" y2="118" stroke="#5A1010" stroke-width="2" stroke-linecap="round"/><line x1="135" y1="118" x2="145" y2="130" stroke="#5A1010" stroke-width="2" stroke-linecap="round"/><line x1="114" y1="126" x2="132" y2="135" stroke="#5A1010" stroke-width="2" stroke-linecap="round"/><line x1="132" y1="135" x2="138" y2="148" stroke="#5A1010" stroke-width="2" stroke-linecap="round"/><path d="M90,73 Q78,58 72,48" fill="none" stroke="#5A1010" stroke-width="2" stroke-linecap="round" stroke-linejoin="round"/><circle cx="72" cy="47" r="3" fill="#5A1010" stroke="#2C2C2C" stroke-width="1.5"/><path d="M110,73 Q122,58 128,48" fill="none" stroke="#5A1010" stroke-width="2" stroke-linecap="round" stroke-linejoin="round"/><circle cx="128" cy="47" r="3" fill="#5A1010" stroke="#2C2C2C" stroke-width="1.5"/><circle cx="90" cy="86" r="6" fill="#FFF" stroke="#2C2C2C" stroke-width="1.5"/><circle cx="90.5" cy="86.5" r="3.5999999999999996" fill="#2C2C2C" stroke="none" stroke-width="0"/><circle cx="88.5" cy="84" r="1.32" fill="#FFF" stroke="none" stroke-width="0"/><circle cx="110" cy="86" r="6" fill="#FFF" stroke="#2C2C2C" stroke-width="1.5"/><circle cx="110.5" cy="86.5" r="3.5999999999999996" fill="#2C2C2C" stroke="none" stroke-width="0"/><circle cx="108.5" cy="84" r="1.32" fill="#FFF" stroke="none" stroke-width="0"/><line x1="88" y1="99" x2="82" y2="106" stroke="#5A1010" stroke-width="2" stroke-linecap="round"/><line x1="112" y1="99" x2="118" y2="106" stroke="#5A1010" stroke-width="2" stroke-linecap="round"/>
</svg>