<svg xmlns="http://www.w3.org/2000/svg" viewBox="0 0 200 200">
<circle cx="100" cy="100" r="95" fill="#C0C8D0" stroke="none" stroke-width="0"/><line x1="100" y1="20" x2="100" y2="180" stroke="#CCCCCC" stroke-width="0.5" stroke-linecap="round"/><line x1="20" y1="100" x2="180" y2="100" stroke="#CCCCCC" stroke-width="0.5" stroke-linecap="round"/><line x1="42" y1="42" x2="158" y2="158" stroke="#CCCCCC" stroke-width="0.5" stroke-linecap="round"/><line x1="158" y1="42" x2="42" y2="158" stroke="#CCCCCC" stroke-width="0.5" stroke-linecap="round"/><path d="M100,40 Q130,55 130,100 Q115,130 100,130 Q85,130 70,100 Q70,55 100,40" fill="#CCCCCC" stroke="#CCCCCC" stroke-width="0.5" stroke-linecap="round" stroke-linejoin="round"/><path d="M100,65 Q118,74 118,100 Q111,116 100,116 Q89,116 82,100 Q82,74 100,65" fill="#CCCCCC" stroke="#CCCCCC" stroke-width="0.5" stroke-linecap="round" stroke-linejoin="round"/><line x1="74" y1="100" x2="45" y2="75" stroke="#484848" stroke-width="2.5" stroke-linecap="round"/><line x1="45" y1="75" x2="32" y2="55" stroke="#484848" stroke-width="2.5" stroke-linecap="round"/><line x1="72" y1="112" x2="44" y2="100" stroke="#484848" stroke-width="2.5" stroke-linecap="round"/><line x1="44" y1="100" x2="30" y2="85" stroke="#484848" stroke-width="2.5" stroke-linecap="round"/><line x1="75" y1="124" x2="50" y2="120" stroke="#484848" stroke-width="2.5" stroke-linecap="round"/><line x1="50" y1="120" x2="35" y2="115" stroke="#484848" stroke-width="2.5" stroke-linecap="round"/><line x1="82" y1="134" x2="62" y2="148" stroke="#484848" stroke-width="2.5" stroke-linecap="round"/><line x1="62" y1="148" x2="50" y2="162" stroke="#484848" stroke-width="2.5" stroke-linecap="round"/><line x1="126" y1="100" x2="155" y2="75" stroke="#484848" stroke-width="2.5" stroke-linecap="round"/><line x1="155" y1="75" x2="168" y2="55" stroke="#484848" stroke-width="2.5" stroke-linecap="round"/><line x1="128" y1="112" x2="156" y2="100" stroke="#484848" stroke-width="2.5" stroke-linecap="round"/><line x1="156" y1="100" x2="170" y2="85" stroke="#484848" stroke-width="2.5" stroke-linecap="round"/><line x1="125" y1="124" x2="150" y2="120" stroke="#484848" stroke-width="2.5" stroke-linecap="round"/><line x1="150" y1="120" x2="165" y2="115" stroke="#484848" stroke-width="2.5" stroke-linecap="round"/><line x1="118" y1="134" x2="138" y2="148" stroke="#484848" stroke-width="2.5" stroke-linecap="round"/><line x1="138" y1="148" x2="150" y2="162" stroke="#484848" stroke-width="2.5" stroke-linecap="round"/><ellipse cx="100" cy="132" rx="22" ry="30" fill="#2C2C2C" stroke="#2C2C2C" stroke-width="1.5"/><circle cx="100" cy="96" r="20" fill="#2C2C2C" stroke="#2C2C2C" stroke-width="1.5"/><circle cx="88" cy="90" r="4" fill="#FFF" stroke="#2C2C2C" stroke-width="1.5"/><circle cx="96" cy="88" r="4" fill="#FFF" stroke="#2C2C2C" stroke-width="1.5"/><circle cx="104" cy="88" r="4" fill="#FFF" stroke="#2C2C2C" stroke-width="1.5"/><circle cx="112" cy="90" r="4" fill="#FFF" stroke="#2C2C2C" stroke-width="1.5"/><circle cx="88" cy="90" r="2.5" fill="#2C2C2C" stroke="none" stroke-width="0"/><circle cx="96" cy="88" r="2.5" fill="#2C2C2C" stroke="none" stroke-width="0"/><circle cx="104" cy="88" r="2.5" fill="#2C2C2C" stroke="none" stroke-width="0"/><circle cx="112" cy="90" r="2.5" fill="#2C2C2C" stroke="none" stroke-width="0"/>
</svg>