<svg xmlns="http://www.w3.org/2000/svg" viewBox="0 0 200 200">
<circle cx="100" cy="100" r="95" fill="#FFE8F0" stroke="none" stroke-width="0"/><path d="M148,145 Q165,135 162,122 Q158,130 152,138 Q148,143 148,145" fill="none" stroke="#C07090" stroke-width="3" stroke-linecap="round" stroke-linejoin="round"/><ellipse cx="100" cy="148" rx="50" ry="40" fill="#F4A0B0" stroke="#2C2C2C" stroke-width="1.5"/><circle cx="100" cy="82" r="36" fill="#F4A0B0" stroke="#2C2C2C" stroke-width="1.5"/><ellipse cx="72" cy="65" rx="16" ry="12" fill="#F4A0B0" stroke="#C07090" stroke-width="1.5"/><ellipse cx="128" cy="65" rx="16" ry="12" fill="#F4A0B0" stroke="#C07090" stroke-width="1.5"/><circle cx="100" cy="98" r="20" fill="#F8C0CC" stroke="#C07090" stroke-width="2"/><circle cx="93" cy="97" r="5" fill="#C07090" stroke="none" stroke-width="0"/><circle cx="107" cy="97" r="5" fill="#C07090" stroke="none" stroke-width="0"/><circle cx="82" cy="74" r="8" fill="#FFF" stroke="#2C2C2C" stroke-width="1.5"/><circle cx="82.5" cy="74.5" r="4.8" fill="#2C2C2C" stroke="none" stroke-width="0"/><circle cx="80.5" cy="72" r="1.76" fill="#FFF" stroke="none" stroke-width="0"/><circle cx="118" cy="74" r="8" fill="#FFF" stroke="#2C2C2C" stroke-width="1.5"/><circle cx="118.5" cy="74.5" r="4.8" fill="#2C2C2C" stroke="none" stroke-width="0"/><circle cx="116.5" cy="72" r="1.76" fill="#FFF" stroke="none" stroke-width="0"/><path d="M92 112 Q100 116 108 112" fill="none" stroke="#2C2C2C" stroke-width="1.5" stroke-linecap="round" stroke-linejoin="round"/>
</svg>