<svg xmlns="http://www.w3.org/2000/svg" viewBox="0 0 200 200">
<circle cx="100" cy="100" r="95" fill="#A0D0F8" stroke="none" stroke-width="0"/><ellipse cx="100" cy="110" rx="58" ry="30" fill="#5090D0" stroke="#2C2C2C" stroke-width="1.5"/><ellipse cx="95" cy="116" rx="42" ry="20" fill="#90C0E8" stroke="none" stroke-width="0"/><path d="M155,86 Q185,96 185,124 Q158,114 155,132 Q155,108 155,110 Z" fill="#4070B0" stroke="#305090" stroke-width="1.5" stroke-linecap="round" stroke-linejoin="round"/><path d="M88,80 Q95,60 110,80" fill="#4070B0" stroke="#305090" stroke-width="1.5" stroke-linecap="round" stroke-linejoin="round"/><path d="M90,118 Q78,132 90,136 Q90,128 90,118" fill="#4070B0" stroke="#305090" stroke-width="1.5" stroke-linecap="round" stroke-linejoin="round"/><path d="M80,100 Q88,93 88,108" fill="none" stroke="#4070B0" stroke-width="1" stroke-linecap="round" stroke-linejoin="round"/><path d="M95,97 Q103,90 103,105" fill="none" stroke="#4070B0" stroke-width="1" stroke-linecap="round" stroke-linejoin="round"/><path d="M110,98 Q118,91 118,106" fill="none" stroke="#4070B0" stroke-width="1" stroke-linecap="round" stroke-linejoin="round"/><path d="M125,100 Q133,93 133,108" fill="none" stroke="#4070B0" stroke-width="1" stroke-linecap="round" stroke-linejoin="round"/><circle cx="58" cy="106" r="9" fill="#FFF" stroke="#2C2C2C" stroke-width="1.5"/><circle cx="58.5" cy="106.5" r="5.5" fill="#2C2C2C" stroke="none" stroke-width="0"/><circle cx="57" cy="105" r="1.5" fill="#FFF" stroke="none" stroke-width="0"/><path d="M40,110 Q45,116 40,122" fill="none" stroke="#2C2C2C" stroke-width="2" stroke-linecap="round" stroke-linejoin="round"/>
</svg>