<svg xmlns="http://www.w3.org/2000/svg" viewBox="0 0 200 200">
<circle cx="100" cy="100" r="95" fill="#E0E8FF" stroke="none" stroke-width="0"/><ellipse cx="62" cy="105" rx="32" ry="40" fill="#C4C4D4" stroke="#A0A0B4" stroke-width="1.5"/><ellipse cx="138" cy="105" rx="32" ry="40" fill="#C4C4D4" stroke="#A0A0B4" stroke-width="1.5"/><ellipse cx="100" cy="150" rx="50" ry="38" fill="#A0A0B4" stroke="#2C2C2C" stroke-width="1.5"/><circle cx="100" cy="90" r="38" fill="#A0A0B4" stroke="#2C2C2C" stroke-width="1.5"/><path d="M92,118 Q78,135 82,155 Q88,170 96,168" fill="none" stroke="#A0A0B4" stroke-width="10" stroke-linecap="round" stroke-linejoin="round"/><path d="M92,118 Q78,135 82,155 Q88,170 96,168" fill="none" stroke="#C4C4D4" stroke-width="6" stroke-linecap="round" stroke-linejoin="round"/><path d="M86,118 Q72,130 74,148" fill="none" stroke="#F4F0DC" stroke-width="3" stroke-linecap="round" stroke-linejoin="round"/><path d="M88,117 Q75,128 77,146" fill="none" stroke="#F4F0DC" stroke-width="2" stroke-linecap="round" stroke-linejoin="round"/><circle cx="85" cy="80" r="7" fill="#FFF" stroke="#2C2C2C" stroke-width="1.5"/><circle cx="85.5" cy="80.5" r="4.2" fill="#2C2C2C" stroke="none" stroke-width="0"/><circle cx="83.5" cy="78" r="1.54" fill="#FFF" stroke="none" stroke-width="0"/><circle cx="115" cy="80" r="7" fill="#FFF" stroke="#2C2C2C" stroke-width="1.5"/><circle cx="115.5" cy="80.5" r="4.2" fill="#2C2C2C" stroke="none" stroke-width="0"/><circle cx="113.5" cy="78" r="1.54" fill="#FFF" stroke="none" stroke-width="0"/><path d="M90 110 Q100 114 110 110" fill="none" stroke="#2C2C2C" stroke-width="1.5" stroke-linecap="round" stroke-linejoin="round"/>
</svg>