<svg xmlns="http://www.w3.org/2000/svg" viewBox="0 0 200 200">
<circle cx="100" cy="100" r="95" fill="#D0E8A0" stroke="none" stroke-width="0"/><path d="M148,155 Q168,132 162,108 Q156,122 150,136 Q146,148 148,155" fill="#C0905C" stroke="#906840" stroke-width="1.5" stroke-linecap="round" stroke-linejoin="round"/><ellipse cx="100" cy="148" rx="44" ry="36" fill="#C0905C" stroke="#2C2C2C" stroke-width="1.5"/><circle cx="82" cy="138" r="5" fill="#FFFFF0" stroke="none" stroke-width="0"/><circle cx="96" cy="132" r="5" fill="#FFFFF0" stroke="none" stroke-width="0"/><circle cx="112" cy="138" r="5" fill="#FFFFF0" stroke="none" stroke-width="0"/><circle cx="86" cy="150" r="4" fill="#FFFFF0" stroke="none" stroke-width="0"/><circle cx="104" cy="148" r="4" fill="#FFFFF0" stroke="none" stroke-width="0"/><circle cx="120" cy="150" r="4" fill="#FFFFF0" stroke="none" stroke-width="0"/><ellipse cx="118" cy="156" rx="16" ry="12" fill="#F0E8D8" stroke="none" stroke-width="0"/><circle cx="100" cy="82" r="28" fill="#C0905C" stroke="#2C2C2C" stroke-width="1.5"/><ellipse cx="76" cy="84" rx="14" ry="9" fill="#C0905C" stroke="#906840" stroke-width="1"/><ellipse cx="76" cy="84" rx="9" ry="5" fill="#FFD0C0" stroke="none" stroke-width="0"/><ellipse cx="124" cy="84" rx="14" ry="9" fill="#C0905C" stroke="#906840" stroke-width="1"/><ellipse cx="124" cy="84" rx="9" ry="5" fill="#FFD0C0" stroke="none" stroke-width="0"/><ellipse cx="100" cy="90" rx="14" ry="9" fill="#D4AC80" stroke="#C0905C" stroke-width="1"/><circle cx="100" cy="87" r="4" fill="#2C1A08" stroke="none" stroke-width="0"/><circle cx="83" cy="74" r="7" fill="#FFF" stroke="#2C2C2C" stroke-width="1.5"/><circle cx="83.5" cy="74.5" r="4.2" fill="#2C2C2C" stroke="none" stroke-width="0"/><circle cx="81.5" cy="72" r="1.54" fill="#FFF" stroke="none" stroke-width="0"/><circle cx="117" cy="74" r="7" fill="#FFF" stroke="#2C2C2C" stroke-width="1.5"/><circle cx="117.5" cy="74.5" r="4.2" fill="#2C2C2C" stroke="none" stroke-width="0"/><circle cx="115.5" cy="72" r="1.54" fill="#FFF" stroke="none" stroke-width="0"/><path d="M93 96 Q100 99 107 96" fill="none" stroke="#2C2C2C" stroke-width="1.5" stroke-linecap="round" stroke-linejoin="round"/>
</svg>