<svg xmlns="http://www.w3.org/2000/svg" viewBox="0 0 200 200">
<circle cx="100" cy="100" r="95" fill="#B0D8F0" stroke="none" stroke-width="0"/><ellipse cx="100" cy="145" rx="52" ry="44" fill="#7090A8" stroke="#2C2C2C" stroke-width="1.5"/><ellipse cx="100" cy="148" rx="35" ry="28" fill="#A8C0CC" stroke="none" stroke-width="0"/><path d="M52,148 Q30,140 28,162 Q40,158 52,155" fill="#7090A8" stroke="#506070" stroke-width="1.5" stroke-linecap="round" stroke-linejoin="round"/><path d="M148,148 Q170,140 172,162 Q160,158 148,155" fill="#7090A8" stroke="#506070" stroke-width="1.5" stroke-linecap="round" stroke-linejoin="round"/><path d="M82,185 Q100,192 118,185 Q108,183 100,185 Q92,183 82,185" fill="#7090A8" stroke="#506070" stroke-width="1.5" stroke-linecap="round" stroke-linejoin="round"/><circle cx="100" cy="85" r="30" fill="#7090A8" stroke="#2C2C2C" stroke-width="1.5"/><line x1="82" y1="93" x2="65" y2="90" stroke="#A8C0CC" stroke-width="1.5" stroke-linecap="round"/><line x1="82" y1="95" x2="65" y2="96" stroke="#A8C0CC" stroke-width="1.5" stroke-linecap="round"/><line x1="82" y1="97" x2="65" y2="102" stroke="#A8C0CC" stroke-width="1.5" stroke-linecap="round"/><line x1="118" y1="93" x2="135" y2="90" stroke="#A8C0CC" stroke-width="1.5" stroke-linecap="round"/><line x1="118" y1="95" x2="135" y2="96" stroke="#A8C0CC" stroke-width="1.5" stroke-linecap="round"/><line x1="118" y1="97" x2="135" y2="102" stroke="#A8C0CC" stroke-width="1.5" stroke-linecap="round"/><ellipse cx="100" cy="92" rx="14" ry="10" fill="#A8C0CC" stroke="#7090A8" stroke-width="1"/><circle cx="100" cy="88" r="5" fill="#2C2C2C" stroke="none" stroke-width="0"/><circle cx="84" cy="77" r="8" fill="#FFF" stroke="#2C2C2C" stroke-width="1.5"/><circle cx="84.5" cy="77.5" r="4.8" fill="#1A4060" stroke="none" stroke-width="0"/><circle cx="82.5" cy="75" r="1.76" fill="#FFF" stroke="none" stroke-width="0"/><circle cx="116" cy="77" r="8" fill="#FFF" stroke="#2C2C2C" stroke-width="1.5"/><circle cx="116.5" cy="77.5" r="4.8" fill="#1A4060" stroke="none" stroke-width="0"/><circle cx="114.5" cy="75" r="1.76" fill="#FFF" stroke="none" stroke-width="0"/><path d="M93 99 Q100 103 107 99" fill="none" stroke="#2C2C2C" stroke-width="1.5" stroke-linecap="round" stroke-linejoin="round"/>
</svg>