<svg xmlns="http://www.w3.org/2000/svg" viewBox="0 0 200 200">
<circle cx="100" cy="100" r="95" fill="#C8F0C0" stroke="none" stroke-width="0"/><ellipse cx="100" cy="145" rx="48" ry="36" fill="#4DB04D" stroke="#2C2C2C" stroke-width="1.5"/><ellipse cx="100" cy="148" rx="32" ry="22" fill="#A8E880" stroke="#2A7A2A" stroke-width="1"/><ellipse cx="66" cy="162" rx="18" ry="10" fill="#4DB04D" stroke="#2A7A2A" stroke-width="1.5"/><ellipse cx="134" cy="162" rx="18" ry="10" fill="#4DB04D" stroke="#2A7A2A" stroke-width="1.5"/><circle cx="100" cy="102" r="32" fill="#4DB04D" stroke="#2C2C2C" stroke-width="1.5"/><circle cx="82" cy="80" r="14" fill="#4DB04D" stroke="#2C2C2C" stroke-width="1.5"/><circle cx="118" cy="80" r="14" fill="#4DB04D" stroke="#2C2C2C" stroke-width="1.5"/><circle cx="82" cy="80" r="11" fill="#FFF" stroke="#2C2C2C" stroke-width="1.5"/><circle cx="83" cy="81" r="6.38" fill="#2C2C2C" stroke="none" stroke-width="0"/><circle cx="79" cy="77" r="2.2" fill="#FFF" stroke="none" stroke-width="0"/><circle cx="118" cy="80" r="11" fill="#FFF" stroke="#2C2C2C" stroke-width="1.5"/><circle cx="119" cy="81" r="6.38" fill="#2C2C2C" stroke="none" stroke-width="0"/><circle cx="115" cy="77" r="2.2" fill="#FFF" stroke="none" stroke-width="0"/><path d="M68,116 Q100,135 132,116" fill="none" stroke="#2A7A2A" stroke-width="3" stroke-linecap="round" stroke-linejoin="round"/><circle cx="100" cy="115" r="5" fill="#FF8080" stroke="none" stroke-width="0"/><circle cx="96" cy="113" r="2" fill="#2A7A2A" stroke="none" stroke-width="0"/><circle cx="104" cy="113" r="2" fill="#2A7A2A" stroke="none" stroke-width="0"/>
</svg>