<svg xmlns="http://www.w3.org/2000/svg" viewBox="0 0 200 200">
<circle cx="100" cy="100" r="95" fill="#E8E8DC" stroke="none" stroke-width="0"/><ellipse cx="100" cy="148" rx="48" ry="36" fill="#F4F4F0" stroke="#2C2C2C" stroke-width="1.5"/><path d="M60,148 Q68,112 75,138" fill="none" stroke="#2C2C2C" stroke-width="3" stroke-linecap="round" stroke-linejoin="round"/><path d="M75,148 Q83,108 90,136" fill="none" stroke="#2C2C2C" stroke-width="3" stroke-linecap="round" stroke-linejoin="round"/><path d="M90,148 Q100,106 110,136" fill="none" stroke="#2C2C2C" stroke-width="3" stroke-linecap="round" stroke-linejoin="round"/><path d="M115,148 Q122,108 128,136" fill="none" stroke="#2C2C2C" stroke-width="3" stroke-linecap="round" stroke-linejoin="round"/><path d="M130,148 Q138,112 143,136" fill="none" stroke="#2C2C2C" stroke-width="3" stroke-linecap="round" stroke-linejoin="round"/><path d="M88,128 Q90,95 100,88 Q110,95 112,128" fill="#F4F4F0" stroke="#2C2C2C" stroke-width="1.5" stroke-linecap="round" stroke-linejoin="round"/><path d="M92,128 Q88,100 94,88" fill="none" stroke="#2C2C2C" stroke-width="2.5" stroke-linecap="round" stroke-linejoin="round"/><path d="M96,126 Q92,98 96,86" fill="none" stroke="#2C2C2C" stroke-width="2.5" stroke-linecap="round" stroke-linejoin="round"/><path d="M100,125 Q96,96 100,85" fill="none" stroke="#2C2C2C" stroke-width="2.5" stroke-linecap="round" stroke-linejoin="round"/><path d="M104,126 Q102,97 104,86" fill="none" stroke="#2C2C2C" stroke-width="2.5" stroke-linecap="round" stroke-linejoin="round"/><circle cx="100" cy="76" r="28" fill="#F4F4F0" stroke="#2C2C2C" stroke-width="1.5"/><path d="M78,66 Q80,76 76,86" fill="none" stroke="#2C2C2C" stroke-width="2" stroke-linecap="round" stroke-linejoin="round"/><path d="M88,62 Q90,74 86,87" fill="none" stroke="#2C2C2C" stroke-width="2" stroke-linecap="round" stroke-linejoin="round"/><polygon points="78,50 84,72 72,72" fill="#F4F4F0" stroke="#2C2C2C" stroke-width="1.5"/><polygon points="122,50 128,72 116,72" fill="#F4F4F0" stroke="#2C2C2C" stroke-width="1.5"/><ellipse cx="100" cy="88" rx="14" ry="9" fill="#F4F4F0" stroke="#2C2C2C" stroke-width="1"/><circle cx="100" cy="83" r="4" fill="#2C2C2C" stroke="none" stroke-width="0"/><circle cx="84" cy="70" r="6" fill="#FFF" stroke="#2C2C2C" stroke-width="1.5"/><circle cx="84.5" cy="70.5" r="3.5999999999999996" fill="#2C2C2C" stroke="none" stroke-width="0"/><circle cx="82.5" cy="68" r="1.32" fill="#FFF" stroke="none" stroke-width="0"/><circle cx="116" cy="70" r="6" fill="#FFF" stroke="#2C2C2C" stroke-width="1.5"/><circle cx="116.5" cy="70.5" r="3.5999999999999996" fill="#2C2C2C" stroke="none" stroke-width="0"/><circle cx="114.5" cy="68" r="1.32" fill="#FFF" stroke="none" stroke-width="0"/>
</svg>